<svg xmlns="http://www.w3.org/2000/svg" width="499" height="294" fill="none"><rect width="174" height="45" x="190" fill="#AFB7FF" rx="22.5"/><path fill="#000" d="M215.201 29V15.182h2.922v11.41h5.924V29h-8.846zm13.682.196c-.662 0-1.251-.115-1.768-.344a2.845 2.845 0 0 1-1.228-1.033c-.297-.459-.446-1.03-.446-1.713 0-.576.106-1.06.318-1.451.211-.392.499-.706.863-.945a4.19 4.19 0 0 1 1.242-.54 9.449 9.449 0 0 1 1.471-.256 37.394 37.394 0 0 0 1.457-.175c.369-.059.636-.144.803-.257a.564.564 0 0 0 .25-.499v-.04c0-.428-.135-.759-.405-.992-.266-.234-.644-.351-1.134-.351-.517 0-.929.114-1.235.344a1.588 1.588 0 0 0-.607.85l-2.658-.216c.135-.63.4-1.174.796-1.633.396-.463.906-.818 1.532-1.066.629-.252 1.358-.378 2.186-.378a6.64 6.64 0 0 1 1.653.203 4.32 4.32 0 0 1 1.41.627c.414.284.74.648.978 1.093.239.441.358.97.358 1.586V29h-2.726v-1.437h-.081a2.91 2.91 0 0 1-.668.857 3.096 3.096 0 0 1-1.005.573 4.162 4.162 0 0 1-1.356.203zm.823-1.984a2.41 2.41 0 0 0 1.12-.25c.324-.17.578-.4.762-.688a1.77 1.77 0 0 0 .277-.978v-1.1c-.09.058-.214.112-.371.162a6.77 6.77 0 0 1-.52.128c-.193.036-.387.07-.58.101l-.526.075c-.338.05-.632.128-.884.236a1.41 1.41 0 0 0-.587.438c-.14.18-.209.405-.209.675 0 .391.141.69.425.897.288.203.652.304 1.093.304zm10.117-4.203V29h-2.874V18.636h2.739v1.829h.122a2.892 2.892 0 0 1 1.153-1.43c.54-.356 1.195-.534 1.964-.534.719 0 1.347.158 1.882.473.535.315.952.764 1.248 1.35.297.58.446 1.272.446 2.077V29h-2.875v-6.086c.005-.634-.157-1.129-.485-1.484-.329-.36-.781-.54-1.357-.54-.386 0-.728.083-1.025.25a1.737 1.737 0 0 0-.688.728c-.162.315-.245.695-.25 1.14zm12.764 6.16c-.787 0-1.5-.203-2.139-.608-.634-.409-1.138-1.01-1.511-1.801-.369-.796-.553-1.772-.553-2.928 0-1.188.191-2.175.573-2.962.382-.792.891-1.384 1.525-1.775a3.906 3.906 0 0 1 2.098-.594c.581 0 1.064.1 1.451.297a2.8 2.8 0 0 1 .944.729c.243.288.428.571.554.85h.087v-5.195h2.868V29h-2.834v-1.66h-.121a3.69 3.69 0 0 1-.574.857 2.86 2.86 0 0 1-.951.695c-.387.184-.859.277-1.417.277zm.911-2.288c.463 0 .855-.126 1.174-.377.324-.257.571-.614.742-1.073.175-.46.263-.997.263-1.613s-.085-1.151-.256-1.606c-.171-.454-.419-.805-.742-1.052-.324-.248-.718-.371-1.181-.371-.472 0-.871.128-1.194.384-.324.257-.569.612-.736 1.066-.166.455-.249.98-.249 1.58 0 .602.083 1.135.249 1.598.171.46.416.819.736 1.08.323.256.722.384 1.194.384zM260.847 29V18.636h2.875V29h-2.875zm1.444-11.7a1.56 1.56 0 0 1-1.1-.425 1.38 1.38 0 0 1-.452-1.032c0-.396.151-.735.452-1.019a1.55 1.55 0 0 1 1.1-.432c.427 0 .792.144 1.093.432.306.284.459.623.459 1.019 0 .4-.153.744-.459 1.032a1.538 1.538 0 0 1-1.093.425zm6.607 5.709V29h-2.874V18.636h2.739v1.829h.122a2.889 2.889 0 0 1 1.154-1.43c.539-.356 1.194-.534 1.963-.534.72 0 1.347.158 1.882.473.536.315.952.764 1.249 1.35.297.58.445 1.272.445 2.077V29h-2.874v-6.086c.004-.634-.158-1.129-.486-1.484-.328-.36-.781-.54-1.356-.54-.387 0-.729.083-1.026.25a1.737 1.737 0 0 0-.688.728c-.162.315-.245.695-.25 1.14zm13.614 10.093c-.931 0-1.729-.128-2.395-.384-.661-.252-1.187-.596-1.579-1.033a3.177 3.177 0 0 1-.762-1.47l2.658-.358c.081.207.209.4.385.58.175.18.407.324.695.432.292.112.647.169 1.066.169.625 0 1.14-.153 1.545-.46.409-.3.614-.807.614-1.517v-1.896h-.122c-.125.288-.314.56-.566.816a2.858 2.858 0 0 1-.972.628c-.396.162-.868.243-1.417.243-.778 0-1.486-.18-2.125-.54-.634-.365-1.14-.92-1.518-1.667-.374-.75-.56-1.7-.56-2.847 0-1.174.191-2.155.573-2.942.383-.787.891-1.376 1.525-1.768a3.94 3.94 0 0 1 2.098-.587c.581 0 1.067.1 1.458.297a2.8 2.8 0 0 1 .944.729c.243.288.43.571.56.85h.108v-1.74h2.854V29.1c0 .882-.215 1.62-.647 2.213-.432.594-1.03 1.04-1.795 1.336-.76.302-1.635.452-2.625.452zm.061-6.41c.463 0 .855-.114 1.174-.344.324-.233.571-.566.742-.998.176-.437.263-.958.263-1.566 0-.607-.085-1.133-.256-1.578-.171-.45-.418-.799-.742-1.046-.324-.248-.718-.371-1.181-.371-.472 0-.87.128-1.194.384-.324.252-.569.603-.736 1.053-.166.45-.249.97-.249 1.558 0 .599.083 1.116.249 1.552.171.432.416.767.736 1.006.324.234.722.35 1.194.35zM294.318 29V15.182h5.452c1.048 0 1.941.2 2.679.6a4.07 4.07 0 0 1 1.686 1.653c.392.702.587 1.512.587 2.43 0 .917-.198 1.727-.593 2.428a4.098 4.098 0 0 1-1.721 1.64c-.747.391-1.651.587-2.712.587h-3.475v-2.341h3.002c.563 0 1.026-.097 1.39-.29.369-.198.644-.47.823-.817a2.55 2.55 0 0 0 .277-1.208c0-.459-.092-.859-.277-1.2a1.842 1.842 0 0 0-.823-.804c-.369-.193-.836-.29-1.403-.29h-1.97V29h-2.922zm14.925.196c-.661 0-1.251-.115-1.768-.344a2.85 2.85 0 0 1-1.228-1.033c-.297-.459-.445-1.03-.445-1.713 0-.576.106-1.06.317-1.451a2.56 2.56 0 0 1 .864-.945 4.184 4.184 0 0 1 1.241-.54 9.449 9.449 0 0 1 1.471-.256 37.155 37.155 0 0 0 1.457-.175c.369-.059.637-.144.803-.257a.562.562 0 0 0 .25-.499v-.04c0-.428-.135-.759-.405-.992-.265-.234-.643-.351-1.133-.351-.518 0-.929.114-1.235.344a1.582 1.582 0 0 0-.607.85l-2.659-.216c.135-.63.401-1.174.796-1.633.396-.463.907-.818 1.532-1.066.63-.252 1.358-.378 2.186-.378a6.63 6.63 0 0 1 1.653.203 4.32 4.32 0 0 1 1.41.627c.414.284.74.648.979 1.093.238.441.357.97.357 1.586V29h-2.726v-1.437h-.081a2.91 2.91 0 0 1-.668.857 3.086 3.086 0 0 1-1.005.573 4.154 4.154 0 0 1-1.356.203zm.823-1.984a2.41 2.41 0 0 0 1.12-.25c.324-.17.578-.4.763-.688.184-.288.276-.614.276-.978v-1.1c-.09.058-.214.112-.371.162a6.855 6.855 0 0 1-.519.128c-.194.036-.387.07-.581.101l-.526.075c-.337.05-.632.128-.884.236a1.417 1.417 0 0 0-.587.438 1.07 1.07 0 0 0-.209.675c0 .391.142.69.425.897.288.203.652.304 1.093.304zm11.912 5.89c-.931 0-1.729-.128-2.395-.384-.661-.252-1.188-.596-1.579-1.033a3.177 3.177 0 0 1-.762-1.47l2.658-.358c.081.207.209.4.385.58.175.18.407.324.695.432.292.112.647.169 1.066.169.625 0 1.14-.153 1.545-.46.409-.3.614-.807.614-1.517v-1.896h-.122c-.126.288-.315.56-.566.816a2.858 2.858 0 0 1-.972.628c-.396.162-.868.243-1.417.243a4.25 4.25 0 0 1-2.125-.54c-.635-.365-1.141-.92-1.518-1.667-.374-.75-.56-1.7-.56-2.847 0-1.174.191-2.155.573-2.942.382-.787.891-1.376 1.525-1.768a3.94 3.94 0 0 1 2.098-.587c.581 0 1.066.1 1.458.297a2.8 2.8 0 0 1 .944.729c.243.288.43.571.56.85h.108v-1.74h2.854V29.1c0 .882-.216 1.62-.647 2.213-.432.594-1.031 1.04-1.795 1.336-.76.302-1.635.452-2.625.452zm.061-6.41c.463 0 .855-.114 1.174-.344.324-.233.571-.566.742-.998.176-.437.263-.958.263-1.566 0-.607-.085-1.133-.256-1.578-.171-.45-.418-.799-.742-1.046-.324-.248-.718-.371-1.181-.371-.472 0-.87.128-1.194.384-.324.252-.569.603-.736 1.053-.166.45-.249.97-.249 1.558 0 .599.083 1.116.249 1.552.171.432.416.767.736 1.006.324.234.722.35 1.194.35zm12.017 2.51c-1.066 0-1.984-.216-2.753-.647a4.436 4.436 0 0 1-1.768-1.849c-.414-.8-.621-1.747-.621-2.84 0-1.067.207-2.002.621-2.807a4.59 4.59 0 0 1 1.747-1.883c.756-.45 1.642-.675 2.659-.675.684 0 1.32.11 1.909.331a4.236 4.236 0 0 1 1.552.978c.445.437.792.986 1.039 1.647.248.656.371 1.426.371 2.307v.79h-8.751v-1.782h6.046c0-.413-.09-.78-.27-1.1a1.937 1.937 0 0 0-.749-.748 2.137 2.137 0 0 0-1.1-.277 2.21 2.21 0 0 0-1.16.304 2.13 2.13 0 0 0-.783.803 2.26 2.26 0 0 0-.29 1.113v1.693c0 .513.094.956.283 1.33.194.373.466.66.817.863.35.203.767.304 1.248.304.319 0 .612-.045.877-.135.265-.09.492-.225.681-.405.189-.18.333-.4.432-.661l2.659.175a3.633 3.633 0 0 1-.83 1.674c-.414.472-.949.84-1.606 1.106-.652.261-1.406.391-2.26.391z"/><rect width="127" height="45" x="293" y="60" fill="#AFFAFF" rx="22.5"/><path fill="#000" d="M330.393 80.02h-2.955a2.88 2.88 0 0 0-.331-1.02 2.583 2.583 0 0 0-.641-.769 2.82 2.82 0 0 0-.904-.485 3.459 3.459 0 0 0-1.1-.169c-.715 0-1.338.178-1.869.533-.53.35-.942.864-1.234 1.538-.293.67-.439 1.485-.439 2.443 0 .985.146 1.813.439 2.483.297.67.71 1.176 1.241 1.518.531.342 1.145.513 1.842.513.391 0 .754-.052 1.086-.155.338-.104.637-.255.898-.453.261-.202.477-.447.648-.735.175-.288.296-.616.364-.985l2.955.013a5.354 5.354 0 0 1-.573 1.836 5.525 5.525 0 0 1-1.222 1.572 5.742 5.742 0 0 1-1.821 1.093c-.702.265-1.496.398-2.382.398-1.233 0-2.335-.279-3.306-.837-.967-.558-1.732-1.365-2.294-2.422-.558-1.057-.837-2.337-.837-3.84 0-1.506.283-2.788.85-3.845.567-1.057 1.336-1.862 2.308-2.416.971-.557 2.064-.836 3.279-.836.801 0 1.543.112 2.226.337a5.642 5.642 0 0 1 1.829.985c.531.428.963.952 1.295 1.572.338.621.554 1.332.648 2.132zm6.724 9.182c-1.048 0-1.955-.222-2.719-.668a4.56 4.56 0 0 1-1.761-1.875c-.414-.805-.621-1.739-.621-2.8 0-1.07.207-2.006.621-2.807.413-.805 1-1.43 1.761-1.876.764-.45 1.671-.675 2.719-.675 1.048 0 1.952.225 2.712.675a4.504 4.504 0 0 1 1.768 1.876c.414.8.621 1.736.621 2.807 0 1.061-.207 1.995-.621 2.8a4.557 4.557 0 0 1-1.768 1.875c-.76.446-1.664.668-2.712.668zm.013-2.226c.477 0 .875-.135 1.194-.405.32-.274.56-.648.722-1.12.167-.472.25-1.01.25-1.613 0-.602-.083-1.14-.25-1.612-.162-.472-.402-.846-.722-1.12-.319-.275-.717-.412-1.194-.412-.481 0-.886.137-1.214.412-.324.274-.569.648-.736 1.12-.162.472-.243 1.01-.243 1.612 0 .603.081 1.14.243 1.613.167.472.412.846.736 1.12.328.27.733.405 1.214.405zm13.602-2.389v-5.95h2.875V89h-2.76v-1.882h-.108a3.062 3.062 0 0 1-1.167 1.464c-.54.369-1.199.553-1.977.553-.693 0-1.302-.157-1.828-.472a3.243 3.243 0 0 1-1.235-1.343c-.293-.58-.441-1.275-.446-2.085v-6.599h2.875v6.086c.004.612.168 1.096.492 1.45.324.356.758.534 1.303.534.346 0 .67-.079.971-.236.301-.162.544-.4.729-.715.189-.315.281-.704.276-1.168zM355.906 89V78.636h2.786v1.809h.108c.189-.644.506-1.13.952-1.458a2.5 2.5 0 0 1 1.538-.5 4.361 4.361 0 0 1 .904.102v2.55a3.74 3.74 0 0 0-.56-.107 5.015 5.015 0 0 0-.654-.048c-.423 0-.801.093-1.134.277-.328.18-.589.432-.783.756a2.19 2.19 0 0 0-.283 1.12V89h-2.874zm16.397-7.408-2.631.162a1.364 1.364 0 0 0-.29-.608 1.552 1.552 0 0 0-.587-.438 1.997 1.997 0 0 0-.857-.169c-.446 0-.821.094-1.127.283-.306.185-.459.432-.459.743 0 .247.099.456.297.627.198.171.537.308 1.019.412l1.876.377c1.007.207 1.758.54 2.253 1 .495.458.742 1.06.742 1.807 0 .68-.2 1.276-.6 1.788-.396.513-.94.914-1.633 1.201-.688.284-1.482.425-2.382.425-1.372 0-2.465-.285-3.279-.856-.81-.576-1.284-1.359-1.424-2.349l2.827-.148c.086.418.293.738.621.958.329.216.749.324 1.262.324.504 0 .909-.097 1.214-.29.311-.198.468-.452.473-.762a.795.795 0 0 0-.331-.641c-.216-.171-.549-.302-.998-.392l-1.795-.357c-1.012-.203-1.766-.554-2.261-1.053-.49-.5-.735-1.136-.735-1.91 0-.665.18-1.239.54-1.72.364-.481.875-.852 1.531-1.113.662-.261 1.435-.392 2.321-.392 1.309 0 2.339.277 3.091.83.755.554 1.196 1.307 1.322 2.26zm6.769 7.61c-1.066 0-1.983-.215-2.753-.647a4.434 4.434 0 0 1-1.767-1.849c-.414-.8-.621-1.748-.621-2.84 0-1.067.207-2.002.621-2.807a4.583 4.583 0 0 1 1.747-1.883c.756-.45 1.642-.675 2.658-.675.684 0 1.321.11 1.91.331a4.236 4.236 0 0 1 1.552.978c.445.437.791.986 1.039 1.647.247.656.371 1.426.371 2.307v.79h-8.751v-1.782h6.045c0-.413-.09-.78-.27-1.1a1.923 1.923 0 0 0-.749-.748 2.131 2.131 0 0 0-1.099-.277c-.437 0-.823.101-1.161.304a2.12 2.12 0 0 0-.782.803 2.272 2.272 0 0 0-.291 1.113v1.693c0 .513.095.956.284 1.33.193.373.465.66.816.863.351.203.767.304 1.248.304.32 0 .612-.045.878-.135.265-.09.492-.225.681-.405.189-.18.333-.4.432-.661l2.658.175a3.624 3.624 0 0 1-.83 1.673c-.414.473-.949.842-1.606 1.107-.652.261-1.405.391-2.26.391zm15.256-7.61-2.632.162a1.364 1.364 0 0 0-.29-.608 1.537 1.537 0 0 0-.587-.438 1.994 1.994 0 0 0-.857-.169c-.445 0-.821.094-1.127.283-.306.185-.458.432-.458.743 0 .247.098.456.296.627.198.171.538.308 1.019.412l1.876.377c1.007.207 1.759.54 2.253 1 .495.458.743 1.06.743 1.807 0 .68-.201 1.276-.601 1.788-.396.513-.94.914-1.633 1.201-.688.284-1.482.425-2.381.425-1.372 0-2.465-.285-3.28-.856-.809-.576-1.284-1.359-1.423-2.349l2.827-.148c.085.418.292.738.621.958.328.216.749.324 1.261.324.504 0 .909-.097 1.215-.29.31-.198.468-.452.472-.762a.794.794 0 0 0-.33-.641c-.216-.171-.549-.302-.999-.392l-1.795-.357c-1.012-.203-1.765-.554-2.26-1.053-.49-.5-.736-1.136-.736-1.91 0-.665.18-1.239.54-1.72.365-.481.875-.852 1.532-1.113.661-.261 1.435-.392 2.321-.392 1.309 0 2.339.277 3.09.83.756.554 1.197 1.307 1.323 2.26z"/><rect width="135" height="45" y="148" fill="#AFFAFF" rx="22.5"/><path fill="#000" d="M25.201 177v-13.818h5.452c1.048 0 1.94.2 2.678.6.738.396 1.3.947 1.687 1.653.391.702.587 1.512.587 2.429 0 .918-.198 1.728-.594 2.429a4.092 4.092 0 0 1-1.72 1.64c-.747.391-1.651.587-2.712.587h-3.475v-2.341h3.002c.562 0 1.026-.097 1.39-.291a1.92 1.92 0 0 0 .823-.816 2.55 2.55 0 0 0 .277-1.208c0-.458-.092-.859-.277-1.201a1.85 1.85 0 0 0-.823-.803c-.369-.193-.837-.29-1.403-.29h-1.97V177H25.2zm16.763.202c-1.048 0-1.954-.222-2.719-.668a4.568 4.568 0 0 1-1.76-1.875c-.415-.805-.621-1.739-.621-2.8 0-1.071.206-2.006.62-2.807a4.519 4.519 0 0 1 1.761-1.876c.765-.45 1.671-.675 2.72-.675 1.047 0 1.951.225 2.712.675a4.504 4.504 0 0 1 1.767 1.876c.414.801.621 1.736.621 2.807 0 1.061-.207 1.995-.62 2.8a4.555 4.555 0 0 1-1.768 1.875c-.76.446-1.665.668-2.713.668zm.014-2.226c.477 0 .875-.135 1.194-.405.32-.274.56-.648.722-1.12.166-.472.25-1.01.25-1.613 0-.602-.084-1.14-.25-1.612-.162-.472-.403-.846-.722-1.12-.32-.275-.717-.412-1.194-.412-.482 0-.886.137-1.215.412-.323.274-.569.648-.735 1.12-.162.472-.243 1.01-.243 1.612 0 .603.08 1.141.243 1.613.166.472.412.846.735 1.12.329.27.733.405 1.215.405zm10.775 2.193c-.787 0-1.5-.203-2.139-.608-.634-.409-1.138-1.009-1.511-1.801-.369-.796-.553-1.772-.553-2.928 0-1.188.19-2.175.573-2.962.382-.792.89-1.383 1.525-1.775a3.906 3.906 0 0 1 2.098-.594c.58 0 1.064.099 1.45.297.392.194.707.437.946.729.242.288.427.571.553.85h.087v-5.195h2.868V177h-2.834v-1.66h-.121a3.696 3.696 0 0 1-.574.857c-.243.279-.56.511-.951.695-.387.184-.86.277-1.417.277zm.91-2.288c.464 0 .856-.126 1.175-.377.324-.257.571-.614.742-1.073.175-.459.263-.997.263-1.613s-.085-1.151-.256-1.606c-.171-.454-.419-.805-.742-1.052-.324-.248-.718-.371-1.181-.371-.472 0-.87.128-1.194.384-.324.257-.57.612-.736 1.066-.166.455-.25.981-.25 1.579 0 .603.084 1.136.25 1.599.171.459.416.819.736 1.08.324.256.722.384 1.194.384zm12.033 2.321c-1.062 0-1.975-.224-2.74-.674a4.563 4.563 0 0 1-1.754-1.89c-.405-.805-.607-1.731-.607-2.779 0-1.062.205-1.993.614-2.794.414-.805 1-1.432 1.76-1.882.761-.454 1.665-.682 2.713-.682.904 0 1.696.165 2.375.493.68.328 1.217.789 1.613 1.383.396.594.614 1.291.654 2.092h-2.712c-.076-.518-.279-.934-.607-1.248-.324-.32-.75-.48-1.275-.48-.446 0-.835.122-1.168.365-.328.238-.584.587-.769 1.046-.184.458-.277 1.014-.277 1.666 0 .661.09 1.224.27 1.687.185.463.443.816.776 1.059s.722.365 1.168.365c.328 0 .623-.068.883-.203a1.7 1.7 0 0 0 .655-.587c.175-.261.29-.573.344-.938h2.712c-.045.792-.26 1.489-.647 2.092a3.911 3.911 0 0 1-1.586 1.403c-.675.338-1.473.506-2.395.506zm9.424-.006c-.661 0-1.25-.115-1.768-.344a2.843 2.843 0 0 1-1.228-1.033c-.297-.459-.445-1.03-.445-1.714 0-.575.105-1.059.317-1.45.211-.392.5-.706.864-.945a4.213 4.213 0 0 1 1.241-.54 9.58 9.58 0 0 1 1.47-.256 37.342 37.342 0 0 0 1.458-.175c.37-.059.637-.144.803-.257a.563.563 0 0 0 .25-.499v-.041c0-.427-.135-.757-.405-.991-.265-.234-.643-.351-1.134-.351-.517 0-.928.114-1.234.344a1.583 1.583 0 0 0-.608.85l-2.658-.216c.135-.63.4-1.174.796-1.633.396-.463.907-.818 1.532-1.066.63-.252 1.358-.378 2.186-.378.576 0 1.127.068 1.653.203.53.135 1 .344 1.41.627.414.284.74.648.978 1.093.239.441.358.97.358 1.586V177H78.23v-1.437h-.08c-.167.324-.39.609-.669.857a3.08 3.08 0 0 1-1.005.573 4.153 4.153 0 0 1-1.356.203zm.823-1.984a2.41 2.41 0 0 0 1.12-.25c.324-.171.578-.4.763-.688.184-.288.276-.614.276-.978v-1.1c-.09.058-.214.112-.371.162a6.545 6.545 0 0 1-.52.128c-.193.036-.386.07-.58.101l-.526.075a3.533 3.533 0 0 0-.884.236 1.416 1.416 0 0 0-.587.438c-.14.18-.21.405-.21.675 0 .391.143.69.426.897.288.203.652.304 1.093.304zm15.866-5.62-2.631.162a1.363 1.363 0 0 0-.29-.608 1.543 1.543 0 0 0-.588-.438 1.986 1.986 0 0 0-.856-.169c-.446 0-.821.095-1.127.283-.306.185-.459.432-.459.743 0 .247.099.456.297.627.198.171.537.308 1.019.412l1.875.378c1.008.206 1.76.539 2.254.998.495.459.742 1.062.742 1.808 0 .68-.2 1.276-.6 1.788-.396.513-.94.913-1.633 1.201-.688.284-1.482.425-2.382.425-1.372 0-2.465-.285-3.28-.856-.809-.576-1.283-1.359-1.423-2.348l2.827-.149c.086.418.293.738.621.958.328.216.749.324 1.262.324.504 0 .908-.097 1.214-.29.31-.198.468-.452.473-.763a.792.792 0 0 0-.331-.64c-.216-.171-.549-.302-.999-.392L86 172.689c-1.012-.203-1.766-.554-2.26-1.053-.49-.499-.736-1.136-.736-1.909 0-.666.18-1.24.54-1.721.364-.481.875-.852 1.531-1.113.662-.261 1.435-.392 2.321-.392 1.31 0 2.34.277 3.09.83.756.554 1.197 1.307 1.323 2.261zm7.559-2.956v2.159h-6.242v-2.159h6.242zm-4.825-2.483h2.874v9.662c0 .266.041.473.122.621.08.144.193.245.337.304.149.058.32.087.513.087.135 0 .27-.011.405-.033.135-.027.238-.048.31-.061l.452 2.139a7.874 7.874 0 0 1-.607.155c-.26.063-.578.101-.951.115-.693.027-1.3-.066-1.822-.277a2.542 2.542 0 0 1-1.208-.985c-.288-.445-.43-1.008-.425-1.687v-10.04zm15.19 5.439-2.632.162a1.357 1.357 0 0 0-.29-.608 1.54 1.54 0 0 0-.587-.438 1.985 1.985 0 0 0-.857-.169c-.445 0-.821.095-1.126.283-.306.185-.459.432-.459.743 0 .247.099.456.297.627.198.171.537.308 1.018.412l1.876.378c1.008.206 1.759.539 2.254.998.495.459.742 1.062.742 1.808 0 .68-.2 1.276-.601 1.788-.395.513-.94.913-1.632 1.201-.689.284-1.483.425-2.382.425-1.372 0-2.465-.285-3.279-.856-.81-.576-1.284-1.359-1.424-2.348l2.827-.149c.086.418.293.738.621.958.328.216.749.324 1.262.324.503 0 .908-.097 1.214-.29.31-.198.468-.452.472-.763a.79.79 0 0 0-.33-.64c-.216-.171-.549-.302-.999-.392l-1.795-.357c-1.012-.203-1.765-.554-2.26-1.053-.49-.499-.735-1.136-.735-1.909 0-.666.18-1.24.54-1.721.364-.481.874-.852 1.531-1.113.661-.261 1.435-.392 2.321-.392 1.309 0 2.339.277 3.09.83.756.554 1.197 1.307 1.323 2.261z"/><rect width="101" height="45" x="166" y="197" fill="#FFAFAF" rx="22.5"/><path fill="#000" d="M191.201 226v-13.818h5.533c1.016 0 1.864.151 2.543.452.68.301 1.19.72 1.532 1.255.342.531.513 1.142.513 1.835 0 .54-.108 1.014-.324 1.424a2.793 2.793 0 0 1-.891.998c-.373.257-.8.439-1.282.547v.135a3.093 3.093 0 0 1 1.478.445c.463.274.839.659 1.127 1.154.288.49.432 1.075.432 1.754 0 .733-.183 1.388-.547 1.964-.36.571-.893 1.023-1.599 1.356-.706.333-1.577.499-2.611.499h-5.904zm2.922-2.388h2.381c.814 0 1.408-.156 1.782-.466.373-.315.56-.733.56-1.255 0-.382-.093-.72-.277-1.012a1.882 1.882 0 0 0-.79-.688c-.337-.167-.739-.25-1.207-.25h-2.449v3.671zm0-5.648h2.165c.401 0 .756-.07 1.066-.209.315-.144.563-.346.743-.607.184-.261.276-.574.276-.938 0-.499-.177-.902-.533-1.208-.351-.306-.85-.459-1.498-.459h-2.219v3.421zm12.46-5.782V226h-2.874v-13.818h2.874zm6.985 14.02c-1.048 0-1.955-.222-2.719-.668a4.57 4.57 0 0 1-1.761-1.875c-.414-.805-.621-1.739-.621-2.8 0-1.071.207-2.006.621-2.807a4.519 4.519 0 0 1 1.761-1.876c.764-.45 1.671-.675 2.719-.675 1.048 0 1.952.225 2.712.675a4.503 4.503 0 0 1 1.768 1.876c.414.801.621 1.736.621 2.807 0 1.061-.207 1.995-.621 2.8a4.555 4.555 0 0 1-1.768 1.875c-.76.446-1.664.668-2.712.668zm.013-2.226c.477 0 .875-.135 1.195-.405.319-.274.56-.648.722-1.12.166-.472.249-1.01.249-1.613 0-.602-.083-1.14-.249-1.612-.162-.472-.403-.846-.722-1.12-.32-.275-.718-.412-1.195-.412-.481 0-.886.137-1.214.412-.324.274-.569.648-.736 1.12-.162.472-.243 1.01-.243 1.612 0 .603.081 1.141.243 1.613.167.472.412.846.736 1.12.328.27.733.405 1.214.405zm11.626 6.126c-.931 0-1.73-.128-2.396-.384-.661-.252-1.187-.596-1.578-1.033a3.165 3.165 0 0 1-.763-1.471l2.659-.357c.081.207.209.4.384.58.176.18.407.324.695.432.292.112.648.169 1.066.169.625 0 1.14-.153 1.545-.459.41-.302.614-.808.614-1.518v-1.896h-.121c-.126.288-.315.56-.567.816a2.85 2.85 0 0 1-.972.628c-.395.162-.868.243-1.416.243-.779 0-1.487-.18-2.126-.54-.634-.365-1.14-.92-1.518-1.667-.373-.751-.56-1.7-.56-2.847 0-1.174.191-2.155.574-2.942.382-.787.89-1.376 1.524-1.768a3.947 3.947 0 0 1 2.099-.587c.58 0 1.066.099 1.457.297.392.194.706.437.945.729.243.288.429.571.56.85h.108v-1.741h2.854v10.465c0 .882-.216 1.62-.648 2.213-.432.594-1.03 1.039-1.795 1.336-.76.302-1.635.452-2.624.452zm.06-6.41c.464 0 .855-.114 1.174-.344.324-.234.572-.566.743-.998.175-.437.263-.958.263-1.566 0-.607-.086-1.133-.257-1.578-.171-.45-.418-.799-.742-1.046-.324-.248-.717-.371-1.181-.371-.472 0-.87.128-1.194.384-.324.252-.569.603-.735 1.053-.167.45-.25.969-.25 1.558 0 .599.083 1.116.25 1.552.171.432.416.767.735 1.006.324.234.722.35 1.194.35zm15.917-5.1-2.631.162a1.359 1.359 0 0 0-.291-.608 1.54 1.54 0 0 0-.587-.438 1.983 1.983 0 0 0-.856-.169c-.446 0-.821.095-1.127.283-.306.185-.459.432-.459.743 0 .247.099.456.297.627.198.171.537.308 1.019.412l1.875.378c1.008.206 1.759.539 2.254.998.495.459.742 1.062.742 1.808 0 .68-.2 1.276-.6 1.788-.396.513-.941.913-1.633 1.201-.688.284-1.482.425-2.382.425-1.372 0-2.465-.285-3.279-.856-.81-.576-1.284-1.359-1.424-2.348l2.827-.149c.086.418.293.738.621.958.328.216.749.324 1.262.324.504 0 .908-.097 1.214-.29.311-.198.468-.452.473-.763a.794.794 0 0 0-.331-.64c-.216-.171-.549-.302-.999-.392l-1.794-.357c-1.012-.203-1.766-.554-2.261-1.053-.49-.499-.735-1.136-.735-1.909 0-.666.18-1.24.54-1.721.364-.481.875-.852 1.531-1.113.662-.261 1.435-.392 2.321-.392 1.309 0 2.339.277 3.091.83.755.554 1.196 1.307 1.322 2.261z"/><rect width="159" height="45" x="340" y="180" fill="#F4FFAF" rx="22.5"/><path fill="#000" d="M365.201 209v-13.818h9.311v2.409h-6.389v3.292h5.91v2.409h-5.91v3.299h6.416V209h-9.338zm16.262.202c-1.061 0-1.974-.224-2.739-.674a4.56 4.56 0 0 1-1.754-1.89c-.405-.805-.608-1.731-.608-2.779 0-1.062.205-1.993.614-2.794a4.564 4.564 0 0 1 1.761-1.882c.761-.454 1.665-.682 2.713-.682.904 0 1.696.165 2.375.493a3.96 3.96 0 0 1 1.612 1.383c.396.594.614 1.291.655 2.092h-2.712c-.077-.518-.279-.934-.608-1.248-.324-.32-.749-.48-1.275-.48-.445 0-.834.122-1.167.365-.329.238-.585.587-.769 1.046-.185.458-.277 1.014-.277 1.666 0 .661.09 1.224.27 1.687.184.463.443.816.776 1.059s.722.365 1.167.365c.328 0 .623-.068.884-.203.265-.135.483-.33.654-.587.176-.261.291-.573.345-.938h2.712c-.045.792-.261 1.489-.648 2.092a3.912 3.912 0 0 1-1.585 1.403c-.675.338-1.474.506-2.396.506zm11.152 0c-1.048 0-1.955-.222-2.719-.668a4.558 4.558 0 0 1-1.761-1.875c-.414-.805-.621-1.739-.621-2.8 0-1.071.207-2.006.621-2.807.413-.805 1-1.431 1.761-1.876.764-.45 1.671-.675 2.719-.675 1.048 0 1.952.225 2.712.675a4.503 4.503 0 0 1 1.768 1.876c.414.801.621 1.736.621 2.807 0 1.061-.207 1.995-.621 2.8a4.555 4.555 0 0 1-1.768 1.875c-.76.446-1.664.668-2.712.668zm.013-2.226c.477 0 .875-.135 1.194-.405.32-.274.56-.648.722-1.12.167-.472.25-1.01.25-1.613 0-.602-.083-1.14-.25-1.612-.162-.472-.402-.846-.722-1.12-.319-.275-.717-.412-1.194-.412-.481 0-.886.137-1.214.412-.324.274-.569.648-.736 1.12-.162.472-.243 1.01-.243 1.612 0 .603.081 1.141.243 1.613.167.472.412.846.736 1.12.328.27.733.405 1.214.405zm6.957 2.024v-10.364h2.739v1.829h.121a2.876 2.876 0 0 1 1.08-1.437c.504-.351 1.106-.527 1.808-.527.711 0 1.316.178 1.815.533.499.351.832.828.999 1.431h.108a2.754 2.754 0 0 1 1.147-1.424c.557-.36 1.216-.54 1.977-.54.967 0 1.752.309 2.354.925.608.612.911 1.48.911 2.604V209h-2.867v-6.403c0-.576-.153-1.008-.459-1.296-.306-.287-.688-.431-1.147-.431-.522 0-.929.166-1.221.499-.293.328-.439.762-.439 1.302V209h-2.787v-6.464c0-.508-.146-.913-.438-1.214-.288-.302-.668-.452-1.14-.452-.32 0-.608.081-.864.243a1.67 1.67 0 0 0-.601.668 2.126 2.126 0 0 0-.222.998V209h-2.874zm17.33 0v-10.364h2.739v1.829h.121a2.876 2.876 0 0 1 1.08-1.437c.504-.351 1.106-.527 1.808-.527.711 0 1.316.178 1.815.533.499.351.832.828.999 1.431h.108a2.754 2.754 0 0 1 1.147-1.424c.557-.36 1.216-.54 1.977-.54.967 0 1.752.309 2.354.925.608.612.911 1.48.911 2.604V209h-2.867v-6.403c0-.576-.153-1.008-.459-1.296-.306-.287-.688-.431-1.147-.431-.522 0-.929.166-1.221.499-.293.328-.439.762-.439 1.302V209h-2.786v-6.464c0-.508-.147-.913-.439-1.214-.288-.302-.668-.452-1.14-.452-.32 0-.608.081-.864.243a1.66 1.66 0 0 0-.6.668 2.114 2.114 0 0 0-.223.998V209h-2.874zm22.053.202c-1.066 0-1.984-.215-2.753-.647a4.441 4.441 0 0 1-1.768-1.849c-.414-.801-.621-1.748-.621-2.841 0-1.066.207-2.001.621-2.806a4.583 4.583 0 0 1 1.748-1.883c.755-.45 1.641-.675 2.658-.675.684 0 1.32.111 1.909.331a4.24 4.24 0 0 1 1.552.978c.446.437.792.985 1.039 1.647.248.656.371 1.426.371 2.307v.79h-8.751v-1.782h6.046a2.2 2.2 0 0 0-.27-1.099c-.18-.32-.43-.569-.749-.749a2.13 2.13 0 0 0-1.1-.277c-.436 0-.823.101-1.16.304a2.125 2.125 0 0 0-.783.803 2.259 2.259 0 0 0-.29 1.113v1.693c0 .513.094.956.283 1.33.194.373.466.661.817.863.351.203.767.304 1.248.304.319 0 .612-.045.877-.135.265-.09.493-.225.682-.405.188-.18.332-.4.431-.661l2.659.175a3.636 3.636 0 0 1-.83 1.674c-.414.472-.949.841-1.606 1.106-.652.261-1.406.391-2.26.391zM445.6 209v-10.364h2.787v1.809h.108c.189-.644.506-1.129.951-1.458a2.498 2.498 0 0 1 1.538-.499 4.361 4.361 0 0 1 .904.101v2.551a3.591 3.591 0 0 0-.56-.108 4.939 4.939 0 0 0-.654-.048c-.423 0-.801.093-1.134.277-.328.18-.589.432-.782.756a2.181 2.181 0 0 0-.284 1.12V209H445.6zm11.975.202c-1.062 0-1.975-.224-2.74-.674a4.56 4.56 0 0 1-1.754-1.89c-.405-.805-.607-1.731-.607-2.779 0-1.062.204-1.993.614-2.794a4.564 4.564 0 0 1 1.761-1.882c.76-.454 1.664-.682 2.712-.682.904 0 1.696.165 2.375.493a3.969 3.969 0 0 1 1.613 1.383c.396.594.614 1.291.654 2.092h-2.712c-.077-.518-.279-.934-.607-1.248-.324-.32-.749-.48-1.276-.48-.445 0-.834.122-1.167.365-.328.238-.585.587-.769 1.046-.184.458-.277 1.014-.277 1.666 0 .661.09 1.224.27 1.687.185.463.443.816.776 1.059s.722.365 1.167.365c.329 0 .623-.068.884-.203a1.7 1.7 0 0 0 .655-.587c.175-.261.29-.573.344-.938h2.712c-.045.792-.261 1.489-.648 2.092a3.905 3.905 0 0 1-1.585 1.403c-.675.338-1.473.506-2.395.506zm11.192 0c-1.067 0-1.984-.215-2.753-.647a4.441 4.441 0 0 1-1.768-1.849c-.414-.801-.621-1.748-.621-2.841 0-1.066.207-2.001.621-2.806a4.587 4.587 0 0 1 1.747-1.883c.756-.45 1.642-.675 2.659-.675.684 0 1.32.111 1.909.331a4.24 4.24 0 0 1 1.552.978c.445.437.792.985 1.039 1.647.248.656.371 1.426.371 2.307v.79h-8.751v-1.782h6.046a2.2 2.2 0 0 0-.27-1.099c-.18-.32-.43-.569-.749-.749a2.133 2.133 0 0 0-1.1-.277c-.436 0-.823.101-1.16.304a2.125 2.125 0 0 0-.783.803 2.259 2.259 0 0 0-.29 1.113v1.693c0 .513.094.956.283 1.33.194.373.466.661.817.863.35.203.766.304 1.248.304.319 0 .611-.045.877-.135.265-.09.492-.225.681-.405.189-.18.333-.4.432-.661l2.659.175a3.636 3.636 0 0 1-.83 1.674c-.414.472-.949.841-1.606 1.106-.652.261-1.406.391-2.26.391z"/><rect width="136" height="45" x="32" y="249" fill="#FFCCAF" rx="22.5"/><path fill="#000" d="M59.583 278h-3.13l4.77-13.818h3.764L69.751 278H66.62l-3.461-10.661h-.108L59.583 278zm-.196-5.431h7.395v2.28h-7.395v-2.28zm16.16 9.533c-.932 0-1.73-.128-2.396-.384-.66-.252-1.187-.596-1.579-1.033a3.17 3.17 0 0 1-.762-1.471l2.658-.357c.081.207.21.4.385.58.175.18.407.324.695.432.292.112.648.169 1.066.169.625 0 1.14-.153 1.545-.459.41-.302.614-.808.614-1.518v-1.896h-.121c-.126.288-.315.56-.567.816a2.85 2.85 0 0 1-.972.628c-.396.162-.868.243-1.417.243-.778 0-1.486-.18-2.125-.54-.634-.365-1.14-.92-1.518-1.667-.373-.751-.56-1.7-.56-2.847 0-1.174.191-2.155.573-2.942.383-.787.891-1.376 1.525-1.768a3.943 3.943 0 0 1 2.099-.587c.58 0 1.066.099 1.457.297.391.194.706.437.945.729.243.288.43.571.56.85h.108v-1.741h2.854v10.465c0 .882-.216 1.62-.648 2.213-.432.594-1.03 1.039-1.795 1.336-.76.302-1.635.452-2.625.452zm.06-6.41c.463 0 .855-.114 1.174-.344.324-.234.572-.566.742-.998.176-.437.264-.958.264-1.566 0-.607-.086-1.133-.257-1.578-.17-.45-.418-.799-.742-1.046-.324-.248-.718-.371-1.18-.371-.473 0-.871.128-1.195.384-.324.252-.569.603-.735 1.053-.167.45-.25.969-.25 1.558 0 .599.083 1.116.25 1.552.17.432.416.767.735 1.006.324.234.722.35 1.194.35zm12.017 2.51c-1.066 0-1.984-.215-2.753-.647a4.442 4.442 0 0 1-1.768-1.849c-.413-.801-.62-1.748-.62-2.841 0-1.066.206-2.001.62-2.806a4.587 4.587 0 0 1 1.748-1.883c.755-.45 1.642-.675 2.658-.675.684 0 1.32.111 1.91.331a4.24 4.24 0 0 1 1.552.978c.445.437.791.985 1.039 1.647.247.656.37 1.426.37 2.307v.79h-8.75v-1.782h6.045a2.2 2.2 0 0 0-.27-1.099 1.93 1.93 0 0 0-.749-.749 2.13 2.13 0 0 0-1.1-.277c-.436 0-.823.101-1.16.304a2.125 2.125 0 0 0-.783.803 2.265 2.265 0 0 0-.29 1.113v1.693c0 .513.095.956.284 1.33.193.373.465.661.816.863.35.203.767.304 1.248.304.32 0 .612-.045.877-.135.266-.09.493-.225.682-.405.189-.18.333-.4.432-.661l2.658.175a3.633 3.633 0 0 1-.83 1.674c-.414.472-.949.841-1.606 1.106-.652.261-1.405.391-2.26.391zm9.507-6.193V278h-2.875v-10.364h2.74v1.829h.121c.23-.603.614-1.08 1.154-1.431.54-.355 1.194-.533 1.963-.533.72 0 1.348.158 1.883.473a3.21 3.21 0 0 1 1.248 1.349c.297.58.445 1.273.445 2.078V278h-2.874v-6.086c.005-.634-.157-1.129-.486-1.484-.328-.36-.78-.54-1.356-.54a2.05 2.05 0 0 0-1.025.25 1.739 1.739 0 0 0-.689.728c-.162.315-.245.695-.25 1.141zm13.627 6.193c-1.061 0-1.974-.224-2.739-.674a4.56 4.56 0 0 1-1.754-1.89c-.405-.805-.608-1.731-.608-2.779 0-1.062.205-1.993.614-2.794a4.564 4.564 0 0 1 1.761-1.882c.761-.454 1.665-.682 2.713-.682.904 0 1.696.165 2.375.493a3.966 3.966 0 0 1 1.612 1.383c.396.594.614 1.291.655 2.092h-2.713c-.076-.518-.278-.934-.607-1.248-.324-.32-.749-.48-1.275-.48-.445 0-.834.122-1.167.365-.329.238-.585.587-.769 1.046-.185.458-.277 1.014-.277 1.666 0 .661.09 1.224.27 1.687.184.463.443.816.776 1.059s.722.365 1.167.365c.328 0 .623-.068.884-.203.265-.135.483-.33.654-.587.176-.261.29-.573.344-.938h2.713c-.045.792-.261 1.489-.648 2.092a3.908 3.908 0 0 1-1.586 1.403c-.674.338-1.473.506-2.395.506zm6.469-.202v-10.364h2.874V278h-2.874zm1.444-11.7a1.56 1.56 0 0 1-1.1-.425 1.38 1.38 0 0 1-.452-1.032c0-.396.151-.735.452-1.019a1.55 1.55 0 0 1 1.1-.432c.427 0 .792.144 1.093.432.306.284.459.623.459 1.019 0 .4-.153.744-.459 1.032a1.535 1.535 0 0 1-1.093.425zm8.456 11.902c-1.066 0-1.984-.215-2.753-.647a4.441 4.441 0 0 1-1.768-1.849c-.414-.801-.62-1.748-.62-2.841 0-1.066.206-2.001.62-2.806a4.59 4.59 0 0 1 1.748-1.883c.755-.45 1.642-.675 2.658-.675.684 0 1.32.111 1.91.331a4.236 4.236 0 0 1 1.551.978c.446.437.792.985 1.04 1.647.247.656.371 1.426.371 2.307v.79h-8.751v-1.782h6.045a2.2 2.2 0 0 0-.27-1.099 1.926 1.926 0 0 0-.749-.749 2.13 2.13 0 0 0-1.1-.277c-.436 0-.823.101-1.16.304a2.125 2.125 0 0 0-.783.803 2.27 2.27 0 0 0-.29 1.113v1.693c0 .513.095.956.283 1.33.194.373.466.661.817.863.351.203.767.304 1.248.304.319 0 .612-.045.877-.135.266-.09.493-.225.682-.405.189-.18.333-.4.432-.661l2.658.175a3.636 3.636 0 0 1-.83 1.674c-.414.472-.949.841-1.606 1.106-.652.261-1.405.391-2.26.391zm15.255-7.61-2.631.162a1.367 1.367 0 0 0-.29-.608 1.547 1.547 0 0 0-.587-.438 1.988 1.988 0 0 0-.857-.169c-.446 0-.821.095-1.127.283-.306.185-.459.432-.459.743 0 .247.099.456.297.627.198.171.538.308 1.019.412l1.876.378c1.007.206 1.758.539 2.253.998.495.459.742 1.062.742 1.808 0 .68-.2 1.276-.6 1.788-.396.513-.94.913-1.633 1.201-.688.284-1.482.425-2.382.425-1.372 0-2.465-.285-3.279-.856-.809-.576-1.284-1.359-1.423-2.348l2.827-.149c.085.418.292.738.62.958.329.216.749.324 1.262.324.504 0 .909-.097 1.215-.29.31-.198.467-.452.472-.763a.794.794 0 0 0-.331-.64c-.216-.171-.549-.302-.998-.392l-1.795-.357c-1.012-.203-1.766-.554-2.26-1.053-.491-.499-.736-1.136-.736-1.909 0-.666.18-1.24.54-1.721.364-.481.875-.852 1.532-1.113.661-.261 1.434-.392 2.321-.392 1.308 0 2.339.277 3.09.83.755.554 1.196 1.307 1.322 2.261z"/><rect width="173" height="45" x="68" y="63" fill="#FFAFF7" rx="22.5"/><path fill="#000" d="M105.393 83.02h-2.955a2.88 2.88 0 0 0-.331-1.02 2.583 2.583 0 0 0-.641-.769 2.82 2.82 0 0 0-.904-.485 3.457 3.457 0 0 0-1.1-.169c-.715 0-1.338.178-1.869.533-.53.35-.942.864-1.234 1.538-.293.67-.439 1.485-.439 2.443 0 .985.146 1.813.439 2.483.297.67.71 1.176 1.241 1.518.53.342 1.145.513 1.842.513a3.65 3.65 0 0 0 1.086-.155c.338-.104.637-.255.898-.453.261-.202.477-.447.648-.735.175-.288.296-.616.364-.985l2.955.013a5.354 5.354 0 0 1-.573 1.836 5.525 5.525 0 0 1-1.222 1.572 5.742 5.742 0 0 1-1.821 1.093c-.702.265-1.496.398-2.382.398-1.233 0-2.335-.279-3.306-.837-.967-.558-1.732-1.365-2.294-2.422-.558-1.057-.837-2.337-.837-3.84 0-1.506.284-2.788.85-3.845.567-1.057 1.336-1.862 2.308-2.416.971-.557 2.064-.836 3.279-.836.801 0 1.543.112 2.226.337a5.642 5.642 0 0 1 1.829.985c.531.428.963.952 1.295 1.572.338.621.554 1.332.648 2.132zm6.724 9.182c-1.048 0-1.955-.222-2.719-.668a4.56 4.56 0 0 1-1.761-1.875c-.414-.805-.621-1.739-.621-2.8 0-1.07.207-2.006.621-2.807.413-.805 1-1.43 1.761-1.876.764-.45 1.671-.675 2.719-.675 1.048 0 1.952.225 2.712.675a4.504 4.504 0 0 1 1.768 1.876c.414.8.621 1.736.621 2.807 0 1.061-.207 1.995-.621 2.8a4.557 4.557 0 0 1-1.768 1.875c-.76.446-1.664.668-2.712.668zm.013-2.226c.477 0 .875-.135 1.194-.405.32-.274.56-.648.722-1.12.167-.472.25-1.01.25-1.613 0-.602-.083-1.14-.25-1.612-.162-.472-.402-.846-.722-1.12-.319-.275-.717-.412-1.194-.412-.481 0-.886.137-1.214.412-.324.274-.569.648-.736 1.12-.162.472-.243 1.01-.243 1.612 0 .603.081 1.14.243 1.613.167.472.412.846.736 1.12.328.27.733.405 1.214.405zM119.086 92V81.636h2.74v1.829h.121a2.875 2.875 0 0 1 1.08-1.437c.504-.351 1.106-.527 1.808-.527.711 0 1.316.178 1.815.533.499.351.832.828.999 1.43h.108a2.752 2.752 0 0 1 1.147-1.423c.557-.36 1.216-.54 1.977-.54.967 0 1.752.308 2.354.925.608.611.911 1.48.911 2.604V92h-2.867v-6.403c0-.576-.153-1.008-.459-1.295-.306-.288-.688-.432-1.147-.432-.522 0-.929.166-1.221.499-.293.328-.439.762-.439 1.302V92h-2.787v-6.464c0-.508-.146-.913-.438-1.214-.288-.302-.668-.452-1.14-.452-.32 0-.608.08-.864.243a1.67 1.67 0 0 0-.601.668 2.129 2.129 0 0 0-.222.998V92h-2.875zm17.331 0V81.636h2.739v1.829h.121a2.875 2.875 0 0 1 1.08-1.437c.504-.351 1.106-.527 1.808-.527.711 0 1.316.178 1.815.533.499.351.832.828.999 1.43h.108a2.752 2.752 0 0 1 1.147-1.423c.557-.36 1.216-.54 1.977-.54.967 0 1.752.308 2.354.925.608.611.911 1.48.911 2.604V92h-2.867v-6.403c0-.576-.153-1.008-.459-1.295-.306-.288-.688-.432-1.147-.432-.522 0-.929.166-1.221.499-.293.328-.439.762-.439 1.302V92h-2.787v-6.464c0-.508-.146-.913-.438-1.214-.288-.302-.668-.452-1.14-.452-.32 0-.608.08-.864.243a1.67 1.67 0 0 0-.601.668 2.129 2.129 0 0 0-.222.998V92h-2.874zm23.976-4.413v-5.95h2.874V92h-2.76v-1.882h-.108a3.062 3.062 0 0 1-1.167 1.464c-.54.369-1.199.553-1.977.553-.693 0-1.302-.157-1.828-.472a3.243 3.243 0 0 1-1.235-1.343c-.292-.58-.441-1.275-.445-2.085v-6.599h2.874v6.086c.004.612.169 1.096.492 1.45.324.356.758.534 1.303.534.346 0 .67-.079.971-.236.302-.162.545-.4.729-.715.189-.315.281-.704.277-1.168zm8.047-1.579V92h-2.874V81.636h2.739v1.829h.122a2.889 2.889 0 0 1 1.154-1.43c.539-.356 1.194-.534 1.963-.534.72 0 1.347.158 1.882.473.536.315.952.764 1.249 1.35.297.58.445 1.272.445 2.077V92h-2.874v-6.086c.004-.634-.158-1.129-.486-1.484-.329-.36-.781-.54-1.356-.54-.387 0-.729.083-1.026.25a1.737 1.737 0 0 0-.688.728c-.162.315-.245.695-.25 1.14zM177.385 92V81.636h2.875V92h-2.875zm1.444-11.7a1.56 1.56 0 0 1-1.1-.425 1.38 1.38 0 0 1-.452-1.032c0-.396.151-.735.452-1.019a1.55 1.55 0 0 1 1.1-.432c.428 0 .792.144 1.093.432.306.284.459.623.459 1.019 0 .4-.153.745-.459 1.032a1.536 1.536 0 0 1-1.093.425zm9.245 1.336v2.16h-6.241v-2.16h6.241zm-4.824-2.483h2.875v9.662c0 .266.04.473.121.621a.669.669 0 0 0 .337.304c.149.058.32.087.513.087.135 0 .27-.01.405-.033.135-.027.238-.048.31-.061l.452 2.139a8.07 8.07 0 0 1-.607.155 4.868 4.868 0 0 1-.951.115c-.693.027-1.3-.066-1.822-.277a2.546 2.546 0 0 1-1.208-.985c-.288-.445-.429-1.008-.425-1.687v-10.04zM189.947 92V81.636h2.874V92h-2.874zm1.444-11.7c-.428 0-.794-.141-1.1-.425a1.38 1.38 0 0 1-.452-1.032c0-.396.151-.735.452-1.019a1.548 1.548 0 0 1 1.1-.432c.427 0 .791.144 1.093.432.306.284.459.623.459 1.019 0 .4-.153.745-.459 1.032a1.54 1.54 0 0 1-1.093.425zm8.456 11.902c-1.066 0-1.984-.215-2.753-.647a4.436 4.436 0 0 1-1.768-1.849c-.414-.8-.621-1.748-.621-2.84 0-1.067.207-2.002.621-2.807a4.585 4.585 0 0 1 1.748-1.883c.755-.45 1.641-.675 2.658-.675.684 0 1.32.11 1.909.331a4.236 4.236 0 0 1 1.552.978c.445.437.792.986 1.039 1.647.248.656.371 1.426.371 2.307v.79h-8.751v-1.782h6.046c0-.413-.09-.78-.27-1.1a1.937 1.937 0 0 0-.749-.748 2.137 2.137 0 0 0-1.1-.277 2.21 2.21 0 0 0-1.16.304 2.13 2.13 0 0 0-.783.803 2.26 2.26 0 0 0-.29 1.113v1.693c0 .513.094.956.283 1.33.194.373.466.66.817.863.35.203.767.304 1.248.304.319 0 .612-.045.877-.135.265-.09.492-.225.681-.405.189-.18.333-.4.432-.661l2.659.175a3.633 3.633 0 0 1-.83 1.673c-.414.473-.949.842-1.606 1.107-.652.261-1.406.391-2.26.391zm15.255-7.61-2.631.162a1.356 1.356 0 0 0-.291-.608 1.537 1.537 0 0 0-.587-.438 1.992 1.992 0 0 0-.856-.169c-.446 0-.821.094-1.127.283-.306.185-.459.432-.459.743 0 .247.099.456.297.627.198.171.537.308 1.019.412l1.875.377c1.008.207 1.759.54 2.254 1 .495.458.742 1.06.742 1.807 0 .68-.2 1.276-.6 1.788-.396.513-.941.914-1.633 1.201-.688.284-1.482.425-2.382.425-1.372 0-2.465-.285-3.279-.856-.81-.576-1.284-1.359-1.424-2.349l2.827-.148c.086.418.293.738.621.958.328.216.749.324 1.262.324.504 0 .908-.097 1.214-.29.311-.198.468-.452.473-.762a.795.795 0 0 0-.331-.641c-.216-.171-.549-.302-.999-.392l-1.794-.357c-1.012-.203-1.766-.554-2.261-1.053-.49-.5-.735-1.136-.735-1.91 0-.665.18-1.239.54-1.72.364-.481.875-.852 1.531-1.113.661-.261 1.435-.392 2.321-.392 1.309 0 2.339.277 3.09.83.756.554 1.197 1.307 1.323 2.26z"/><rect width="181" height="45" x="172" y="126" fill="#E5AFFF" rx="22.5"/><path fill="#000" d="M197.201 155v-13.818h5.452c1.048 0 1.941.2 2.678.6.738.396 1.3.947 1.687 1.653.391.702.587 1.512.587 2.429 0 .918-.198 1.728-.594 2.429a4.087 4.087 0 0 1-1.72 1.64c-.747.391-1.651.587-2.713.587h-3.474v-2.341h3.002c.562 0 1.026-.097 1.39-.291.369-.197.643-.47.823-.816a2.55 2.55 0 0 0 .277-1.208c0-.458-.092-.859-.277-1.201a1.849 1.849 0 0 0-.823-.803c-.369-.193-.837-.29-1.403-.29h-1.97V155h-2.922zm16.804.202c-1.066 0-1.984-.215-2.753-.647a4.441 4.441 0 0 1-1.768-1.849c-.414-.801-.621-1.748-.621-2.841 0-1.066.207-2.001.621-2.806a4.59 4.59 0 0 1 1.748-1.883c.755-.45 1.642-.675 2.658-.675.684 0 1.32.111 1.91.331a4.236 4.236 0 0 1 1.551.978c.446.437.792.985 1.039 1.647.248.656.372 1.426.372 2.307v.79h-8.752v-1.782h6.046a2.2 2.2 0 0 0-.27-1.099c-.18-.32-.43-.569-.749-.749a2.13 2.13 0 0 0-1.1-.277c-.436 0-.823.101-1.16.304a2.125 2.125 0 0 0-.783.803 2.27 2.27 0 0 0-.29 1.113v1.693c0 .513.094.956.283 1.33.194.373.466.661.817.863.351.203.767.304 1.248.304.319 0 .612-.045.877-.135.266-.09.493-.225.682-.405.189-.18.332-.4.431-.661l2.659.175a3.636 3.636 0 0 1-.83 1.674c-.414.472-.949.841-1.606 1.106-.652.261-1.406.391-2.26.391zm6.632-.202v-10.364h2.787v1.809h.108c.189-.644.506-1.129.951-1.458a2.498 2.498 0 0 1 1.538-.499 4.347 4.347 0 0 1 .905.101v2.551a3.64 3.64 0 0 0-.56-.108 4.965 4.965 0 0 0-.655-.048 2.3 2.3 0 0 0-1.133.277 2.03 2.03 0 0 0-.783.756 2.18 2.18 0 0 0-.283 1.12V155h-2.875zm16.398-7.408-2.632.162a1.367 1.367 0 0 0-.29-.608 1.54 1.54 0 0 0-.587-.438 1.985 1.985 0 0 0-.857-.169c-.445 0-.821.095-1.127.283-.306.185-.458.432-.458.743 0 .247.098.456.296.627.198.171.538.308 1.019.412l1.876.378c1.008.206 1.759.539 2.253.998.495.459.743 1.062.743 1.808 0 .68-.2 1.276-.601 1.788-.396.513-.94.913-1.633 1.201-.688.284-1.482.425-2.381.425-1.372 0-2.465-.285-3.279-.856-.81-.576-1.285-1.359-1.424-2.348l2.827-.149c.085.418.292.738.621.958.328.216.749.324 1.261.324.504 0 .909-.097 1.215-.29.31-.198.468-.452.472-.763a.793.793 0 0 0-.33-.64c-.216-.171-.549-.302-.999-.392l-1.795-.357c-1.012-.203-1.765-.554-2.26-1.053-.49-.499-.736-1.136-.736-1.909 0-.666.18-1.24.54-1.721.365-.481.875-.852 1.532-1.113.661-.261 1.435-.392 2.321-.392 1.309 0 2.339.277 3.09.83.756.554 1.197 1.307 1.323 2.261zm6.728 7.61c-1.048 0-1.954-.222-2.719-.668a4.57 4.57 0 0 1-1.761-1.875c-.414-.805-.621-1.739-.621-2.8 0-1.071.207-2.006.621-2.807a4.519 4.519 0 0 1 1.761-1.876c.765-.45 1.671-.675 2.719-.675 1.048 0 1.952.225 2.712.675a4.503 4.503 0 0 1 1.768 1.876c.414.801.621 1.736.621 2.807 0 1.061-.207 1.995-.621 2.8a4.555 4.555 0 0 1-1.768 1.875c-.76.446-1.664.668-2.712.668zm.014-2.226c.476 0 .875-.135 1.194-.405.319-.274.56-.648.722-1.12.166-.472.249-1.01.249-1.613 0-.602-.083-1.14-.249-1.612-.162-.472-.403-.846-.722-1.12-.319-.275-.718-.412-1.194-.412-.482 0-.886.137-1.215.412-.324.274-.569.648-.735 1.12-.162.472-.243 1.01-.243 1.612 0 .603.081 1.141.243 1.613.166.472.411.846.735 1.12.329.27.733.405 1.215.405zm9.83-3.967V155h-2.874v-10.364h2.739v1.829h.122a2.89 2.89 0 0 1 1.154-1.431c.539-.355 1.194-.533 1.963-.533.72 0 1.347.158 1.882.473.536.315.952.764 1.249 1.349.296.58.445 1.273.445 2.078V155h-2.874v-6.086c.004-.634-.158-1.129-.486-1.484-.329-.36-.781-.54-1.356-.54-.387 0-.729.083-1.026.25a1.737 1.737 0 0 0-.688.728c-.162.315-.245.695-.25 1.141zm11.901 6.187c-.662 0-1.251-.115-1.768-.344a2.843 2.843 0 0 1-1.228-1.033c-.297-.459-.446-1.03-.446-1.714 0-.575.106-1.059.318-1.45.211-.392.499-.706.863-.945a4.217 4.217 0 0 1 1.242-.54 9.58 9.58 0 0 1 1.471-.256 37.547 37.547 0 0 0 1.457-.175c.369-.059.636-.144.803-.257a.564.564 0 0 0 .25-.499v-.041c0-.427-.135-.757-.405-.991-.266-.234-.644-.351-1.134-.351-.517 0-.929.114-1.235.344a1.587 1.587 0 0 0-.607.85l-2.658-.216c.135-.63.4-1.174.796-1.633.396-.463.906-.818 1.532-1.066.629-.252 1.358-.378 2.186-.378.575 0 1.126.068 1.653.203a4.327 4.327 0 0 1 1.41.627c.414.284.74.648.978 1.093.239.441.358.97.358 1.586V155h-2.726v-1.437h-.081a2.922 2.922 0 0 1-.668.857 3.084 3.084 0 0 1-1.005.573 4.159 4.159 0 0 1-1.356.203zm.823-1.984a2.41 2.41 0 0 0 1.12-.25c.324-.171.578-.4.762-.688a1.77 1.77 0 0 0 .277-.978v-1.1c-.09.058-.214.112-.371.162a6.507 6.507 0 0 1-.52.128c-.193.036-.387.07-.58.101l-.526.075a3.528 3.528 0 0 0-.884.236 1.413 1.413 0 0 0-.587.438c-.14.18-.209.405-.209.675 0 .391.141.69.425.897.288.203.652.304 1.093.304zm10.117-12.03V155h-2.874v-13.818h2.874zm14.25 3.974c-.054-.544-.286-.967-.695-1.269-.409-.301-.965-.452-1.666-.452-.477 0-.88.068-1.208.203-.329.13-.58.312-.756.546-.171.234-.256.5-.256.796-.009.248.042.464.155.648.117.185.277.344.479.479.202.131.436.245.702.344.265.095.548.176.85.243l1.241.297a8.755 8.755 0 0 1 1.66.54c.504.225.94.501 1.309.83.369.328.655.715.857 1.16.207.446.313.956.317 1.532-.004.846-.22 1.579-.648 2.199-.422.617-1.034 1.096-1.835 1.438-.796.337-1.756.506-2.881.506-1.115 0-2.087-.171-2.915-.513-.823-.342-1.466-.848-1.929-1.518-.459-.675-.7-1.509-.722-2.503h2.827c.031.463.164.85.398 1.16.238.306.555.538.951.695.4.153.853.229 1.356.229.495 0 .925-.072 1.289-.215.369-.144.655-.345.857-.601.202-.256.304-.551.304-.884 0-.31-.093-.571-.277-.783-.18-.211-.445-.391-.796-.539a8.035 8.035 0 0 0-1.275-.405l-1.505-.378c-1.165-.283-2.085-.726-2.76-1.329-.674-.603-1.009-1.415-1.005-2.436-.004-.837.218-1.567.668-2.193.454-.625 1.077-1.113 1.869-1.464s1.691-.526 2.699-.526c1.025 0 1.92.175 2.685.526.769.351 1.368.839 1.795 1.464.427.626.648 1.35.661 2.173h-2.8zm4.9 9.844v-10.364h2.874V155h-2.874zm1.444-11.7a1.56 1.56 0 0 1-1.1-.425 1.38 1.38 0 0 1-.452-1.032c0-.396.151-.735.452-1.019a1.55 1.55 0 0 1 1.1-.432c.427 0 .792.144 1.093.432.306.284.459.623.459 1.019 0 .4-.153.744-.459 1.032a1.535 1.535 0 0 1-1.093.425zm9.245 1.336v2.159h-6.241v-2.159h6.241zm-4.824-2.483h2.874v9.662c0 .266.041.473.122.621a.672.672 0 0 0 .337.304c.149.058.32.087.513.087.135 0 .27-.011.405-.033.135-.027.238-.048.31-.061l.452 2.139a7.848 7.848 0 0 1-.607.155 4.905 4.905 0 0 1-.951.115c-.693.027-1.3-.066-1.822-.277a2.544 2.544 0 0 1-1.208-.985c-.288-.445-.429-1.008-.425-1.687v-10.04zm11.308 13.049c-1.066 0-1.983-.215-2.752-.647a4.441 4.441 0 0 1-1.768-1.849c-.414-.801-.621-1.748-.621-2.841 0-1.066.207-2.001.621-2.806a4.587 4.587 0 0 1 1.747-1.883c.756-.45 1.642-.675 2.659-.675.683 0 1.32.111 1.909.331a4.24 4.24 0 0 1 1.552.978c.445.437.792.985 1.039 1.647.247.656.371 1.426.371 2.307v.79h-8.751v-1.782h6.046a2.2 2.2 0 0 0-.27-1.099c-.18-.32-.43-.569-.749-.749a2.133 2.133 0 0 0-1.1-.277 2.21 2.21 0 0 0-1.161.304 2.13 2.13 0 0 0-.782.803 2.259 2.259 0 0 0-.29 1.113v1.693c0 .513.094.956.283 1.33.193.373.466.661.816.863.351.203.767.304 1.249.304.319 0 .611-.045.877-.135.265-.09.492-.225.681-.405.189-.18.333-.4.432-.661l2.658.175a3.634 3.634 0 0 1-.829 1.674c-.414.472-.95.841-1.606 1.106-.653.261-1.406.391-2.261.391zm15.256-7.61-2.632.162a1.357 1.357 0 0 0-.29-.608 1.54 1.54 0 0 0-.587-.438 1.985 1.985 0 0 0-.857-.169c-.445 0-.821.095-1.126.283-.306.185-.459.432-.459.743 0 .247.099.456.297.627.198.171.537.308 1.018.412l1.876.378c1.008.206 1.759.539 2.254.998.494.459.742 1.062.742 1.808 0 .68-.2 1.276-.601 1.788-.395.513-.94.913-1.632 1.201-.689.284-1.483.425-2.382.425-1.372 0-2.465-.285-3.279-.856-.81-.576-1.285-1.359-1.424-2.348l2.827-.149c.086.418.292.738.621.958.328.216.749.324 1.262.324.503 0 .908-.097 1.214-.29.31-.198.468-.452.472-.763a.79.79 0 0 0-.33-.64c-.216-.171-.549-.302-.999-.392l-1.795-.357c-1.012-.203-1.765-.554-2.26-1.053-.49-.499-.735-1.136-.735-1.909 0-.666.18-1.24.539-1.721.365-.481.875-.852 1.532-1.113.661-.261 1.435-.392 2.321-.392 1.309 0 2.339.277 3.09.83.756.554 1.197 1.307 1.323 2.261z"/><rect width="147" height="45" x="263" y="249" fill="#AFFFEC" rx="22.5"/><path fill="#000" d="M295.697 268.156c-.054-.544-.286-.967-.695-1.269-.409-.301-.965-.452-1.666-.452-.477 0-.88.068-1.208.203-.329.13-.58.312-.756.546-.171.234-.256.5-.256.796-.009.248.042.464.155.648.117.185.277.344.479.479.202.131.436.245.702.344.265.095.548.176.85.243l1.241.297a8.755 8.755 0 0 1 1.66.54c.504.225.94.501 1.309.83.369.328.655.715.857 1.16.207.446.313.956.317 1.532-.004.846-.22 1.579-.648 2.199-.422.617-1.034 1.096-1.835 1.438-.796.337-1.756.506-2.881.506-1.115 0-2.087-.171-2.915-.513-.823-.342-1.466-.848-1.929-1.518-.459-.675-.7-1.509-.722-2.503h2.827c.031.463.164.85.398 1.16.238.306.555.538.951.695.401.153.853.229 1.356.229.495 0 .925-.072 1.289-.215.369-.144.655-.345.857-.601.202-.256.304-.551.304-.884 0-.31-.093-.571-.277-.783-.18-.211-.445-.391-.796-.539a8.035 8.035 0 0 0-1.275-.405l-1.505-.378c-1.165-.283-2.085-.726-2.76-1.329-.674-.603-1.009-1.415-1.005-2.436-.004-.837.218-1.567.668-2.193.454-.625 1.077-1.113 1.869-1.464s1.691-.526 2.699-.526c1.025 0 1.921.175 2.685.526.769.351 1.368.839 1.795 1.464.427.626.648 1.35.661 2.173h-2.8zm7.855 10.04c-.661 0-1.25-.115-1.767-.344a2.837 2.837 0 0 1-1.228-1.033c-.297-.459-.446-1.03-.446-1.714 0-.575.106-1.059.318-1.45.211-.392.499-.706.863-.945a4.217 4.217 0 0 1 1.242-.54 9.56 9.56 0 0 1 1.471-.256 37.547 37.547 0 0 0 1.457-.175c.369-.059.636-.144.803-.257.166-.112.249-.279.249-.499v-.041c0-.427-.134-.757-.404-.991-.266-.234-.644-.351-1.134-.351-.517 0-.929.114-1.235.344a1.587 1.587 0 0 0-.607.85l-2.658-.216c.135-.63.4-1.174.796-1.633.396-.463.906-.818 1.532-1.066.629-.252 1.358-.378 2.186-.378.575 0 1.126.068 1.653.203.53.135 1 .344 1.41.627.414.284.74.648.978 1.093.239.441.358.97.358 1.586V278h-2.726v-1.437h-.081a2.922 2.922 0 0 1-.668.857 3.084 3.084 0 0 1-1.005.573 4.16 4.16 0 0 1-1.357.203zm.824-1.984c.422 0 .796-.083 1.12-.25.324-.171.578-.4.762-.688a1.77 1.77 0 0 0 .277-.978v-1.1c-.09.058-.214.112-.371.162a6.507 6.507 0 0 1-.52.128c-.193.036-.387.07-.58.101l-.526.075a3.528 3.528 0 0 0-.884.236 1.413 1.413 0 0 0-.587.438c-.14.18-.209.405-.209.675 0 .391.141.69.425.897.287.203.652.304 1.093.304zm10.198 1.984c-.661 0-1.251-.115-1.768-.344a2.849 2.849 0 0 1-1.228-1.033c-.297-.459-.445-1.03-.445-1.714 0-.575.106-1.059.317-1.45a2.56 2.56 0 0 1 .864-.945 4.21 4.21 0 0 1 1.241-.54 9.58 9.58 0 0 1 1.471-.256 37.069 37.069 0 0 0 1.457-.175c.369-.059.637-.144.803-.257.167-.112.25-.279.25-.499v-.041c0-.427-.135-.757-.405-.991-.265-.234-.643-.351-1.133-.351-.518 0-.929.114-1.235.344a1.582 1.582 0 0 0-.607.85l-2.659-.216c.135-.63.401-1.174.796-1.633.396-.463.907-.818 1.532-1.066.63-.252 1.358-.378 2.186-.378.576 0 1.127.068 1.653.203a4.327 4.327 0 0 1 1.41.627c.414.284.74.648.979 1.093.238.441.357.97.357 1.586V278h-2.726v-1.437h-.081a2.922 2.922 0 0 1-.668.857 3.074 3.074 0 0 1-1.005.573 4.15 4.15 0 0 1-1.356.203zm.823-1.984a2.41 2.41 0 0 0 1.12-.25c.324-.171.578-.4.763-.688.184-.288.276-.614.276-.978v-1.1a1.57 1.57 0 0 1-.371.162 6.584 6.584 0 0 1-.519.128c-.194.036-.387.07-.581.101a83.67 83.67 0 0 0-.526.075 3.54 3.54 0 0 0-.884.236 1.42 1.42 0 0 0-.587.438c-.139.18-.209.405-.209.675 0 .391.142.69.425.897.288.203.652.304 1.093.304zm14.793-8.056c-.054-.544-.285-.967-.695-1.269-.409-.301-.965-.452-1.666-.452-.477 0-.88.068-1.208.203-.328.13-.58.312-.756.546-.171.234-.256.5-.256.796a1.14 1.14 0 0 0 .155.648c.117.185.277.344.479.479.203.131.436.245.702.344.265.095.549.176.85.243l1.241.297a8.732 8.732 0 0 1 1.66.54c.504.225.94.501 1.309.83.369.328.655.715.857 1.16.207.446.313.956.317 1.532-.004.846-.22 1.579-.647 2.199-.423.617-1.035 1.096-1.836 1.438-.796.337-1.756.506-2.881.506-1.115 0-2.087-.171-2.915-.513-.823-.342-1.466-.848-1.929-1.518-.459-.675-.7-1.509-.722-2.503h2.827c.031.463.164.85.398 1.16.238.306.556.538.951.695.401.153.853.229 1.357.229.494 0 .924-.072 1.288-.215.369-.144.655-.345.857-.601.203-.256.304-.551.304-.884 0-.31-.092-.571-.277-.783-.18-.211-.445-.391-.796-.539a7.969 7.969 0 0 0-1.275-.405l-1.505-.378c-1.165-.283-2.085-.726-2.759-1.329-.675-.603-1.01-1.415-1.006-2.436-.004-.837.218-1.567.668-2.193.454-.625 1.077-1.113 1.869-1.464s1.691-.526 2.699-.526c1.026 0 1.921.175 2.685.526.77.351 1.368.839 1.795 1.464.427.626.648 1.35.661 2.173h-2.8zm16.848 0c-.054-.544-.286-.967-.695-1.269-.409-.301-.965-.452-1.667-.452-.476 0-.879.068-1.207.203-.329.13-.581.312-.756.546-.171.234-.256.5-.256.796-.009.248.042.464.155.648.117.185.276.344.479.479.202.131.436.245.702.344.265.095.548.176.85.243l1.241.297a8.755 8.755 0 0 1 1.66.54c.504.225.94.501 1.309.83.369.328.654.715.857 1.16.207.446.312.956.317 1.532-.005.846-.221 1.579-.648 2.199-.423.617-1.034 1.096-1.835 1.438-.796.337-1.757.506-2.881.506-1.116 0-2.087-.171-2.915-.513-.823-.342-1.466-.848-1.93-1.518-.458-.675-.699-1.509-.721-2.503h2.827c.031.463.164.85.398 1.16.238.306.555.538.951.695.4.153.852.229 1.356.229.495 0 .925-.072 1.289-.215.369-.144.654-.345.857-.601.202-.256.303-.551.303-.884 0-.31-.092-.571-.276-.783-.18-.211-.446-.391-.796-.539a8.017 8.017 0 0 0-1.276-.405l-1.504-.378c-1.165-.283-2.085-.726-2.76-1.329-.675-.603-1.01-1.415-1.005-2.436-.005-.837.218-1.567.668-2.193.454-.625 1.077-1.113 1.869-1.464.791-.351 1.691-.526 2.699-.526 1.025 0 1.92.175 2.685.526.769.351 1.367.839 1.795 1.464.427.626.647 1.35.661 2.173h-2.8zm4.9 9.844v-10.364h2.874V278h-2.874zm1.444-11.7a1.56 1.56 0 0 1-1.1-.425 1.38 1.38 0 0 1-.452-1.032c0-.396.151-.735.452-1.019a1.55 1.55 0 0 1 1.1-.432c.427 0 .792.144 1.093.432.306.284.459.623.459 1.019 0 .4-.153.744-.459 1.032a1.535 1.535 0 0 1-1.093.425zm9.245 1.336v2.159h-6.241v-2.159h6.241zm-4.824-2.483h2.874v9.662c0 .266.041.473.122.621a.672.672 0 0 0 .337.304c.149.058.319.087.513.087.135 0 .27-.011.405-.033.135-.027.238-.048.31-.061l.452 2.139a7.848 7.848 0 0 1-.607.155 4.905 4.905 0 0 1-.951.115c-.693.027-1.3-.066-1.822-.277a2.544 2.544 0 0 1-1.208-.985c-.288-.445-.429-1.008-.425-1.687v-10.04zm11.308 13.049c-1.066 0-1.983-.215-2.753-.647a4.44 4.44 0 0 1-1.767-1.849c-.414-.801-.621-1.748-.621-2.841 0-1.066.207-2.001.621-2.806a4.58 4.58 0 0 1 1.747-1.883c.756-.45 1.642-.675 2.659-.675.683 0 1.32.111 1.909.331a4.24 4.24 0 0 1 1.552.978c.445.437.791.985 1.039 1.647.247.656.371 1.426.371 2.307v.79h-8.751v-1.782h6.045a2.2 2.2 0 0 0-.27-1.099 1.924 1.924 0 0 0-.748-.749 2.133 2.133 0 0 0-1.1-.277c-.437 0-.823.101-1.161.304a2.123 2.123 0 0 0-.782.803 2.27 2.27 0 0 0-.291 1.113v1.693c0 .513.095.956.284 1.33.193.373.465.661.816.863.351.203.767.304 1.248.304.32 0 .612-.045.878-.135.265-.09.492-.225.681-.405.189-.18.333-.4.432-.661l2.658.175a3.626 3.626 0 0 1-.83 1.674c-.413.472-.949.841-1.605 1.106-.653.261-1.406.391-2.261.391zm15.256-7.61-2.632.162a1.367 1.367 0 0 0-.29-.608 1.54 1.54 0 0 0-.587-.438 1.985 1.985 0 0 0-.857-.169c-.445 0-.821.095-1.127.283-.305.185-.458.432-.458.743a.8.8 0 0 0 .296.627c.198.171.538.308 1.019.412l1.876.378c1.008.206 1.759.539 2.254.998.494.459.742 1.062.742 1.808 0 .68-.2 1.276-.601 1.788-.396.513-.94.913-1.633 1.201-.688.284-1.482.425-2.381.425-1.372 0-2.465-.285-3.279-.856-.81-.576-1.285-1.359-1.424-2.348l2.827-.149c.085.418.292.738.621.958.328.216.749.324 1.261.324.504 0 .909-.097 1.215-.29.31-.198.468-.452.472-.763a.793.793 0 0 0-.33-.64c-.216-.171-.549-.302-.999-.392l-1.795-.357c-1.012-.203-1.765-.554-2.26-1.053-.49-.499-.735-1.136-.735-1.909 0-.666.179-1.24.539-1.721.365-.481.875-.852 1.532-1.113.661-.261 1.435-.392 2.321-.392 1.309 0 2.339.277 3.09.83.756.554 1.197 1.307 1.323 2.261z"/></svg>