<svg width="655" height="96" viewBox="0 0 655 96" fill="none" xmlns="http://www.w3.org/2000/svg">
<g clip-path="url(#clip0_1905_1275)">
<path d="M133.839 63L142.732 35.5649H148.438L157.331 63H152.171L148.018 48.4015C147.626 46.9472 147.207 45.451 146.76 43.9129C146.34 42.3747 145.948 40.8505 145.585 39.3403H145.417C145.026 40.8505 144.62 42.3747 144.201 43.9129C143.809 45.451 143.404 46.9472 142.984 48.4015L138.789 63H133.839ZM139.083 55.5749V51.7575H151.961V55.5749H139.083ZM164.782 63V35.5649H173.801C175.814 35.5649 177.604 35.8305 179.17 36.3619C180.736 36.8933 181.967 37.7742 182.862 39.0047C183.785 40.2353 184.246 41.9133 184.246 44.0387C184.246 46.0523 183.785 47.7163 182.862 49.0307C181.967 50.3452 180.722 51.324 179.128 51.9672C177.562 52.6104 175.786 52.9321 173.801 52.9321H169.648V63H164.782ZM169.648 49.0307H173.423C175.465 49.0307 176.975 48.6112 177.954 47.7722C178.961 46.9332 179.464 45.6887 179.464 44.0387C179.464 42.3048 178.947 41.1162 177.912 40.473C176.905 39.8018 175.409 39.4662 173.423 39.4662H169.648V49.0307ZM192.871 63V35.5649H201.891C203.904 35.5649 205.694 35.8305 207.26 36.3619C208.826 36.8933 210.057 37.7742 210.952 39.0047C211.875 40.2353 212.336 41.9133 212.336 44.0387C212.336 46.0523 211.875 47.7163 210.952 49.0307C210.057 50.3452 208.812 51.324 207.218 51.9672C205.652 52.6104 203.876 52.9321 201.891 52.9321H197.738V63H192.871ZM197.738 49.0307H201.513C203.555 49.0307 205.065 48.6112 206.044 47.7722C207.05 46.9332 207.554 45.6887 207.554 44.0387C207.554 42.3048 207.037 41.1162 206.002 40.473C204.995 39.8018 203.499 39.4662 201.513 39.4662H197.738V49.0307ZM220.794 63V35.5649H229.939C231.84 35.5649 233.546 35.8166 235.057 36.32C236.595 36.8234 237.811 37.6763 238.706 38.8789C239.601 40.0535 240.049 41.6616 240.049 43.7031C240.049 45.6608 239.601 47.2688 238.706 48.5273C237.811 49.7858 236.595 50.7227 235.057 51.338C233.546 51.9532 231.84 52.2609 229.939 52.2609H225.66V63H220.794ZM225.66 48.4015H229.435C231.337 48.4015 232.777 48.01 233.756 47.2269C234.763 46.4438 235.266 45.2692 235.266 43.7031C235.266 42.137 234.763 41.0463 233.756 40.431C232.777 39.7878 231.337 39.4662 229.435 39.4662H225.66V48.4015ZM229.058 50.9604L232.582 48.0659L241.139 63H235.644L229.058 50.9604ZM257.945 63.5034C255.819 63.5034 253.946 62.9441 252.323 61.8254C250.701 60.7067 249.429 59.0847 248.506 56.9592C247.611 54.8338 247.164 52.2329 247.164 49.1566C247.164 46.1642 247.611 43.6192 248.506 41.5217C249.429 39.3963 250.701 37.7882 252.323 36.6975C253.946 35.6068 255.819 35.0615 257.945 35.0615C260.07 35.0615 261.944 35.6068 263.566 36.6975C265.188 37.7882 266.447 39.3963 267.341 41.5217C268.264 43.6192 268.726 46.1642 268.726 49.1566C268.726 52.2329 268.264 54.8338 267.341 56.9592C266.447 59.0847 265.188 60.7067 263.566 61.8254C261.944 62.9441 260.07 63.5034 257.945 63.5034ZM257.945 59.2665C259.119 59.2665 260.14 58.8749 261.007 58.0919C261.874 57.3088 262.545 56.1622 263.021 54.652C263.496 53.1418 263.734 51.31 263.734 49.1566C263.734 47.0591 263.496 45.2832 263.021 43.829C262.545 42.3467 261.874 41.2281 261.007 40.473C260.14 39.6899 259.119 39.2984 257.945 39.2984C256.77 39.2984 255.749 39.6899 254.882 40.473C254.015 41.2281 253.344 42.3467 252.869 43.829C252.393 45.2832 252.156 47.0591 252.156 49.1566C252.156 51.31 252.393 53.1418 252.869 54.652C253.344 56.1622 254.015 57.3088 254.882 58.0919C255.749 58.8749 256.77 59.2665 257.945 59.2665ZM274.289 63L283.182 35.5649H288.887L297.781 63H292.621L288.468 48.4015C288.076 46.9472 287.657 45.451 287.209 43.9129C286.79 42.3747 286.398 40.8505 286.035 39.3403H285.867C285.475 40.8505 285.07 42.3747 284.65 43.9129C284.259 45.451 283.853 46.9472 283.434 48.4015L279.239 63H274.289ZM279.532 55.5749V51.7575H292.411V55.5749H279.532ZM316.39 63.5034C314.684 63.5034 313.076 63.1958 311.566 62.5805C310.083 61.9652 308.769 61.0563 307.622 59.8538C306.504 58.6512 305.623 57.169 304.98 55.4071C304.364 53.6452 304.057 51.6316 304.057 49.3663C304.057 46.3739 304.602 43.815 305.693 41.6895C306.811 39.5361 308.322 37.9001 310.223 36.7814C312.153 35.6348 314.32 35.0615 316.725 35.0615C318.431 35.0615 319.956 35.411 321.298 36.1102C322.64 36.8094 323.731 37.6064 324.57 38.5013L321.885 41.5217C321.214 40.8226 320.459 40.2772 319.62 39.8857C318.781 39.4942 317.816 39.2984 316.725 39.2984C315.215 39.2984 313.873 39.7039 312.698 40.5149C311.552 41.298 310.657 42.4306 310.014 43.9129C309.37 45.3951 309.049 47.171 309.049 49.2405C309.049 51.31 309.37 53.0999 310.014 54.61C310.657 56.1202 311.566 57.2808 312.74 58.0919C313.915 58.8749 315.285 59.2665 316.851 59.2665C317.998 59.2665 319.019 59.0288 319.914 58.5533C320.809 58.0499 321.648 57.3787 322.431 56.5397L325.115 59.5182C324.025 60.8046 322.752 61.7974 321.298 62.4966C319.844 63.1678 318.208 63.5034 316.39 63.5034ZM332.608 63V35.5649H337.516V46.5976H346.913V35.5649H351.821V63H346.913V50.8346H337.516V63H332.608ZM358.559 63L367.452 35.5649H373.157L382.05 63H376.891L372.738 48.4015C372.346 46.9472 371.927 45.451 371.479 43.9129C371.06 42.3747 370.668 40.8505 370.305 39.3403H370.137C369.745 40.8505 369.34 42.3747 368.92 43.9129C368.529 45.451 368.123 46.9472 367.704 48.4015L363.509 63H358.559ZM363.802 55.5749V51.7575H376.681V55.5749H363.802ZM389.417 63V35.5649H397.933C399.807 35.5649 401.471 35.7886 402.925 36.2361C404.407 36.6556 405.568 37.3547 406.407 38.3335C407.246 39.3124 407.665 40.6408 407.665 42.3188C407.665 43.6052 407.274 44.8218 406.491 45.9684C405.736 47.0871 404.547 47.8561 402.925 48.2756V48.4434C404.911 48.779 406.435 49.4782 407.498 50.5409C408.56 51.6037 409.092 53.0719 409.092 54.9456C409.092 56.7635 408.644 58.2737 407.749 59.4762C406.854 60.6788 405.61 61.5737 404.016 62.161C402.45 62.7203 400.66 63 398.646 63H389.417ZM394.283 46.8493H397.514C399.415 46.8493 400.786 46.5137 401.625 45.8426C402.464 45.1714 402.883 44.1925 402.883 42.9061C402.883 41.6476 402.45 40.7666 401.583 40.2632C400.716 39.7319 399.387 39.4662 397.597 39.4662H394.283V46.8493ZM394.283 59.0987H398.143C400.156 59.0987 401.681 58.7491 402.715 58.0499C403.778 57.3228 404.309 56.1762 404.309 54.61C404.309 53.1838 403.792 52.149 402.757 51.5058C401.722 50.8625 400.184 50.5409 398.143 50.5409H394.283V59.0987ZM418.933 63V35.5649H423.758V58.8889H436.636V63H418.933ZM446.31 63V35.5649H463.887V39.6759H451.176V46.6815H461.958V50.7926H451.176V58.8889H464.307V63H446.31ZM492.045 63V35.7327H499.889C502.49 35.7327 504.783 36.1941 506.769 37.117C508.783 38.0119 510.349 39.4522 511.467 41.4378C512.614 43.4234 513.187 46.0243 513.187 49.2405C513.187 52.4566 512.628 55.0855 511.509 57.127C510.391 59.1406 508.853 60.6228 506.895 61.5737C504.965 62.5246 502.77 63 500.309 63H492.045ZM499.26 57.2109H499.512C500.686 57.2109 501.749 56.9872 502.7 56.5397C503.651 56.0923 504.406 55.2952 504.965 54.1486C505.525 53.002 505.804 51.3659 505.804 49.2405C505.804 47.115 505.525 45.507 504.965 44.4163C504.406 43.2976 503.651 42.5425 502.7 42.151C501.749 41.7315 500.686 41.5217 499.512 41.5217H499.26V57.2109ZM520.974 63V35.7327H539.515V41.7734H528.189V46.0523H537.837V52.0931H528.189V56.9592H539.935V63H520.974ZM557.957 63.5034C556.167 63.5034 554.335 63.1818 552.461 62.5386C550.616 61.8953 548.924 60.9165 547.386 59.6021L551.497 54.652C552.531 55.4351 553.636 56.0783 554.811 56.5817C556.013 57.0571 557.23 57.2948 558.46 57.2948C559.551 57.2948 560.32 57.141 560.768 56.8334C561.243 56.5258 561.481 56.1482 561.481 55.7007C561.481 55.1694 561.327 54.7499 561.019 54.4422C560.712 54.1346 560.264 53.855 559.677 53.6033C559.09 53.3516 558.376 53.0579 557.537 52.7223L554.139 51.296C553.105 50.9045 552.14 50.3731 551.245 49.7019C550.378 49.0028 549.679 48.1638 549.147 47.1849C548.644 46.1781 548.392 45.0175 548.392 43.7031C548.392 42.137 548.826 40.7247 549.693 39.4662C550.56 38.1797 551.776 37.159 553.342 36.4039C554.909 35.6208 556.726 35.2293 558.796 35.2293C560.418 35.2293 562.04 35.5369 563.662 36.1522C565.312 36.7395 566.794 37.6484 568.109 38.8789L564.501 43.4095C563.522 42.7662 562.585 42.2768 561.69 41.9412C560.795 41.6056 559.691 41.4378 558.376 41.4378C557.593 41.4378 556.95 41.5916 556.447 41.8993C555.943 42.1789 555.692 42.6404 555.692 43.2836C555.692 43.7031 555.859 44.0527 556.195 44.3324C556.531 44.612 557.02 44.8777 557.663 45.1294C558.306 45.3811 559.076 45.6748 559.97 46.0103L563.117 47.3108C564.347 47.7583 565.382 48.3316 566.221 49.0307C567.088 49.7019 567.745 50.513 568.193 51.4638C568.64 52.4147 568.864 53.5194 568.864 54.7778C568.864 56.316 568.444 57.7563 567.605 59.0987C566.766 60.4131 565.536 61.4758 563.914 62.2869C562.292 63.0979 560.306 63.5034 557.957 63.5034ZM576.398 63V56.9592H582.607V41.7734H576.398V35.7327H596.031V41.7734H589.822V56.9592H596.031V63H576.398ZM616.192 63.5034C613.871 63.5034 611.732 63 609.774 61.9932C607.844 60.9584 606.292 59.4063 605.118 57.3368C603.971 55.2673 603.398 52.6804 603.398 49.5761C603.398 46.4998 603.971 43.8989 605.118 41.7734C606.292 39.62 607.844 37.9979 609.774 36.9073C611.732 35.7886 613.885 35.2293 616.234 35.2293C618.08 35.2293 619.674 35.5928 621.017 36.32C622.359 37.0191 623.478 37.8301 624.373 38.753L620.429 43.1997C619.87 42.6404 619.269 42.2069 618.625 41.8993C618.01 41.5916 617.213 41.4378 616.234 41.4378C615.255 41.4378 614.347 41.7594 613.508 42.4027C612.697 43.0179 612.039 43.9129 611.536 45.0875C611.06 46.262 610.823 47.6744 610.823 49.3244C610.823 51.0303 611.033 52.4846 611.452 53.6872C611.872 54.8617 612.515 55.7567 613.382 56.3719C614.249 56.9872 615.325 57.2948 616.612 57.2948C616.947 57.2948 617.283 57.2529 617.619 57.169C617.982 57.0851 618.262 56.9592 618.458 56.7914V53.016H615.06V47.143H624.876V60.1474C623.953 60.9864 622.709 61.7555 621.142 62.4547C619.576 63.1538 617.926 63.5034 616.192 63.5034ZM632.327 63V35.7327H639.626L644.198 47.8981L646.422 54.0228H646.59C646.422 52.5405 646.212 50.8625 645.96 48.9888C645.709 47.0871 645.583 45.2972 645.583 43.6192V35.7327H652.462V63H645.163L640.591 50.7926L638.367 44.7099H638.2C638.367 46.2481 638.577 47.954 638.829 49.8278C639.08 51.6736 639.206 53.4355 639.206 55.1134V63H632.327Z" fill="#0F0D1B"/>
<path d="M48.3496 8.13586V72.4403H77.2482C87.5778 72.4403 106.742 66.0291 109.543 45.5867C112.32 25.3186 99.4691 8.13586 76.8533 8.13586H48.3496Z" fill="#5049CA"/>
<mask id="mask0_1905_1275" style="mask-type:alpha" maskUnits="userSpaceOnUse" x="48" y="8" width="62" height="65">
<path d="M48.3496 8.13586V72.4403H77.2482C87.5778 72.4403 106.742 66.0291 109.543 45.5867C112.32 25.3186 99.469 8.13586 76.8533 8.13586H48.3496Z" fill="black"/>
</mask>
<g mask="url(#mask0_1905_1275)">
<path d="M103.077 90.2263C88.232 64.3124 70.2331 34.0494 55.3881 8.1355H36.0361L45.7121 87.49L103.077 90.2263Z" fill="#3B35A8"/>
</g>
<path d="M35.6662 17.7139L0.463135 82.0183H70.2403L35.6662 17.7139Z" fill="#0F0D1B"/>
<path d="M42.9531 56.0231L26.4656 59.2554L32.9871 63.0597L34.5551 70.8168L42.9531 56.0231Z" fill="#FFCCAF"/>
<path d="M68.4504 45.915L88.2084 43.073L80.6995 38.166L79.3062 28.8674L68.4504 45.915Z" fill="#FFCCAF"/>
</g>
<defs>
<clipPath id="clip0_1905_1275">
<rect width="655" height="96" fill="white"/>
</clipPath>
</defs>
</svg>
