<svg xmlns="http://www.w3.org/2000/svg" width="50.103" height="35.455" fill="none" overflow="visible"><path d="M 24.821 3.586 C 23.248 4.259 21.453 5.185 19.436 6.364 C 17.453 7.508 15.863 8.62 14.667 9.697 C 13.299 10.909 12.051 12.273 10.923 13.788 C 9.829 15.303 8.974 17.037 8.359 18.99 L 11.231 18.99 C 14.205 18.99 16.427 19.545 17.897 20.657 C 19.368 21.768 20.103 23.317 20.103 25.303 C 20.103 27.862 19.009 30.202 16.821 32.323 C 14.632 34.411 12.034 35.455 9.026 35.455 C 5.846 35.455 3.538 34.613 2.103 32.929 C 0.701 31.212 0 29.007 0 26.313 C 0 21.027 2.256 15.96 6.769 11.111 C 11.316 6.263 16.855 2.559 23.385 0 Z M 50.103 3.586 C 48.53 4.259 46.735 5.185 44.718 6.364 C 42.735 7.508 41.145 8.62 39.949 9.697 C 38.581 10.909 37.333 12.273 36.205 13.788 C 35.111 15.303 34.256 17.037 33.641 18.99 L 36.513 18.99 C 39.487 18.99 41.709 19.545 43.179 20.657 C 44.65 21.768 45.384 23.317 45.384 25.303 C 45.384 27.862 44.29 30.202 42.103 32.323 C 39.915 34.411 37.316 35.455 34.308 35.455 C 31.128 35.455 28.821 34.613 27.385 32.929 C 25.983 31.212 25.282 29.007 25.282 26.313 C 25.282 21.027 27.538 15.96 32.051 11.111 C 36.598 6.263 42.137 2.559 48.667 0 Z" fill="hsl(281, 16%, 39%)"></path></svg>