<svg width="67" height="267" viewBox="-1 -1 67 267" fill="none" xmlns="http://www.w3.org/2000/svg">
<path d="M50.5 0C50.4999 32.5 0 35.5 0 43.5C0 51.5 64.5002 50 64.5002 59C64.5002 69.5 14.0002 71.5 14.0002 80.5C14.0002 89.5 56.5002 85.5 56.5002 93C56.5002 100.5 18.5002 104.106 18.5002 113.5C18.5002 122.894 46.5002 127 46.5002 136C46.5002 145 29.0002 140.5 29.0002 162.5C29.0002 173.466 46.5002 202.682 46.5002 217C46.5002 231.5 41 245 41 264.5" stroke="url(#paint0_linear_1720_1291)"/>
<defs>
<linearGradient id="paint0_linear_1720_1291" x1="32.2501" y1="0" x2="32.2501" y2="264.5" gradientUnits="userSpaceOnUse">
<stop stop-color="#FFCCAF"/>
<stop offset="1" stop-color="#FFCCAF" stop-opacity="0"/>
</linearGradient>
</defs>
</svg>
